<mxfile host="app.diagrams.net" modified="2020-12-04T03:04:16.450Z" agent="5.0 (Macintosh; Intel Mac OS X 10_14_6) AppleWebKit/537.36 (KHTML, like Gecko) Chrome/86.0.4240.198 Safari/537.36" etag="hOlYVw3UF5wzoarXlLO9" version="13.10.8" type="github" pages="2">
  <diagram name="入网进度查询" id="74e2e168-ea6b-b213-b513-2b3c1d86103e">
    <mxGraphModel dx="807" dy="1366" grid="0" gridSize="10" guides="1" tooltips="1" connect="1" arrows="1" fold="1" page="1" pageScale="1" pageWidth="1100" pageHeight="850" background="#ffffff" math="0" shadow="0">
      <root>
        <mxCell id="0" />
        <mxCell id="1" parent="0" />
        <mxCell id="KllGeDsj4ACoy9Njbnt4-57" value="" style="rounded=1;arcSize=10;dashed=1;strokeColor=#000000;fillColor=none;gradientColor=none;dashPattern=8 3 1 3;strokeWidth=2;" vertex="1" parent="1">
          <mxGeometry x="1368" y="151.5" width="253" height="71" as="geometry" />
        </mxCell>
        <mxCell id="KllGeDsj4ACoy9Njbnt4-54" value="" style="rounded=1;arcSize=10;dashed=1;strokeColor=#000000;fillColor=none;gradientColor=none;dashPattern=8 3 1 3;strokeWidth=2;" vertex="1" parent="1">
          <mxGeometry x="673" y="131" width="233" height="68" as="geometry" />
        </mxCell>
        <mxCell id="KllGeDsj4ACoy9Njbnt4-1" value="查询申请单进度" style="swimlane;html=1;childLayout=stackLayout;resizeParent=1;resizeParentMax=0;startSize=20;" vertex="1" parent="1">
          <mxGeometry x="180" y="-20" width="522" height="560" as="geometry" />
        </mxCell>
        <mxCell id="KllGeDsj4ACoy9Njbnt4-2" value="merchant_menage_server" style="swimlane;html=1;startSize=20;" vertex="1" parent="KllGeDsj4ACoy9Njbnt4-1">
          <mxGeometry y="20" width="249" height="540" as="geometry">
            <mxRectangle y="20" width="30" height="460" as="alternateBounds" />
          </mxGeometry>
        </mxCell>
        <mxCell id="KllGeDsj4ACoy9Njbnt4-6" value="开始" style="strokeWidth=2;html=1;shape=mxgraph.flowchart.start_1;whiteSpace=wrap;" vertex="1" parent="KllGeDsj4ACoy9Njbnt4-2">
          <mxGeometry x="74.5" y="48" width="100" height="60" as="geometry" />
        </mxCell>
        <mxCell id="KllGeDsj4ACoy9Njbnt4-7" value="查询入网进度" style="whiteSpace=wrap;html=1;strokeWidth=2;" vertex="1" parent="KllGeDsj4ACoy9Njbnt4-2">
          <mxGeometry x="64.5" y="150" width="120" height="60" as="geometry" />
        </mxCell>
        <mxCell id="KllGeDsj4ACoy9Njbnt4-8" value="" style="edgeStyle=orthogonalEdgeStyle;rounded=0;orthogonalLoop=1;jettySize=auto;html=1;" edge="1" parent="KllGeDsj4ACoy9Njbnt4-2" source="KllGeDsj4ACoy9Njbnt4-6" target="KllGeDsj4ACoy9Njbnt4-7">
          <mxGeometry relative="1" as="geometry" />
        </mxCell>
        <mxCell id="KllGeDsj4ACoy9Njbnt4-29" value="返回入网进度与联系人信息" style="whiteSpace=wrap;html=1;strokeWidth=2;" vertex="1" parent="KllGeDsj4ACoy9Njbnt4-2">
          <mxGeometry x="64.5" y="326" width="120" height="60" as="geometry" />
        </mxCell>
        <mxCell id="KllGeDsj4ACoy9Njbnt4-31" value="结束" style="ellipse;whiteSpace=wrap;html=1;strokeWidth=2;" vertex="1" parent="KllGeDsj4ACoy9Njbnt4-2">
          <mxGeometry x="74.5" y="456" width="99.5" height="59" as="geometry" />
        </mxCell>
        <mxCell id="KllGeDsj4ACoy9Njbnt4-32" value="" style="edgeStyle=orthogonalEdgeStyle;rounded=0;orthogonalLoop=1;jettySize=auto;html=1;" edge="1" parent="KllGeDsj4ACoy9Njbnt4-2" source="KllGeDsj4ACoy9Njbnt4-29" target="KllGeDsj4ACoy9Njbnt4-31">
          <mxGeometry relative="1" as="geometry" />
        </mxCell>
        <mxCell id="KllGeDsj4ACoy9Njbnt4-10" value="" style="edgeStyle=orthogonalEdgeStyle;rounded=0;orthogonalLoop=1;jettySize=auto;html=1;entryX=0.5;entryY=1;entryDx=0;entryDy=0;entryPerimeter=0;" edge="1" parent="KllGeDsj4ACoy9Njbnt4-1" source="KllGeDsj4ACoy9Njbnt4-7">
          <mxGeometry relative="1" as="geometry">
            <mxPoint x="333" y="200" as="targetPoint" />
          </mxGeometry>
        </mxCell>
        <mxCell id="KllGeDsj4ACoy9Njbnt4-11" value="入参：工单号" style="edgeLabel;html=1;align=center;verticalAlign=middle;resizable=0;points=[];" vertex="1" connectable="0" parent="KllGeDsj4ACoy9Njbnt4-10">
          <mxGeometry x="-0.3477" y="1" relative="1" as="geometry">
            <mxPoint x="1" as="offset" />
          </mxGeometry>
        </mxCell>
        <mxCell id="KllGeDsj4ACoy9Njbnt4-3" value="business-manage-front" style="swimlane;html=1;startSize=20;" vertex="1" parent="KllGeDsj4ACoy9Njbnt4-1">
          <mxGeometry x="249" y="20" width="273" height="540" as="geometry" />
        </mxCell>
        <mxCell id="KllGeDsj4ACoy9Njbnt4-21" value="查询入网进度" style="whiteSpace=wrap;html=1;strokeWidth=2;" vertex="1" parent="KllGeDsj4ACoy9Njbnt4-3">
          <mxGeometry x="85" y="150" width="120" height="60" as="geometry" />
        </mxCell>
        <mxCell id="KllGeDsj4ACoy9Njbnt4-22" value="记录条数" style="rhombus;whiteSpace=wrap;html=1;strokeWidth=2;" vertex="1" parent="KllGeDsj4ACoy9Njbnt4-3">
          <mxGeometry x="94" y="240" width="102" height="56" as="geometry" />
        </mxCell>
        <mxCell id="KllGeDsj4ACoy9Njbnt4-23" value="" style="edgeStyle=orthogonalEdgeStyle;rounded=0;orthogonalLoop=1;jettySize=auto;html=1;" edge="1" parent="KllGeDsj4ACoy9Njbnt4-3" source="KllGeDsj4ACoy9Njbnt4-21" target="KllGeDsj4ACoy9Njbnt4-22">
          <mxGeometry relative="1" as="geometry" />
        </mxCell>
        <mxCell id="KllGeDsj4ACoy9Njbnt4-27" value="查询联系人信息" style="whiteSpace=wrap;html=1;strokeWidth=2;" vertex="1" parent="KllGeDsj4ACoy9Njbnt4-3">
          <mxGeometry x="85" y="326" width="120" height="60" as="geometry" />
        </mxCell>
        <mxCell id="KllGeDsj4ACoy9Njbnt4-28" value="" style="edgeStyle=orthogonalEdgeStyle;rounded=0;orthogonalLoop=1;jettySize=auto;html=1;" edge="1" parent="KllGeDsj4ACoy9Njbnt4-3" source="KllGeDsj4ACoy9Njbnt4-22" target="KllGeDsj4ACoy9Njbnt4-27">
          <mxGeometry relative="1" as="geometry" />
        </mxCell>
        <mxCell id="KllGeDsj4ACoy9Njbnt4-30" value="" style="edgeStyle=orthogonalEdgeStyle;rounded=0;orthogonalLoop=1;jettySize=auto;html=1;" edge="1" parent="KllGeDsj4ACoy9Njbnt4-1" source="KllGeDsj4ACoy9Njbnt4-27" target="KllGeDsj4ACoy9Njbnt4-29">
          <mxGeometry relative="1" as="geometry" />
        </mxCell>
        <mxCell id="KllGeDsj4ACoy9Njbnt4-13" value="" style="shape=cylinder;whiteSpace=wrap;html=1;boundedLbl=1;backgroundOutline=1;strokeWidth=2;" vertex="1" parent="1">
          <mxGeometry x="931" y="140" width="60" height="80" as="geometry" />
        </mxCell>
        <mxCell id="KllGeDsj4ACoy9Njbnt4-24" value="结束" style="ellipse;whiteSpace=wrap;html=1;strokeWidth=2;" vertex="1" parent="1">
          <mxGeometry x="762" y="243" width="83" height="50" as="geometry" />
        </mxCell>
        <mxCell id="KllGeDsj4ACoy9Njbnt4-25" value="" style="edgeStyle=orthogonalEdgeStyle;rounded=0;orthogonalLoop=1;jettySize=auto;html=1;" edge="1" parent="1" source="KllGeDsj4ACoy9Njbnt4-22" target="KllGeDsj4ACoy9Njbnt4-24">
          <mxGeometry relative="1" as="geometry" />
        </mxCell>
        <mxCell id="KllGeDsj4ACoy9Njbnt4-26" value="不等于1" style="edgeLabel;html=1;align=center;verticalAlign=middle;resizable=0;points=[];" vertex="1" connectable="0" parent="KllGeDsj4ACoy9Njbnt4-25">
          <mxGeometry x="-0.2409" y="4" relative="1" as="geometry">
            <mxPoint as="offset" />
          </mxGeometry>
        </mxCell>
        <mxCell id="KllGeDsj4ACoy9Njbnt4-38" value="" style="edgeStyle=orthogonalEdgeStyle;rounded=0;orthogonalLoop=1;jettySize=auto;html=1;" edge="1" parent="1" source="KllGeDsj4ACoy9Njbnt4-33" target="KllGeDsj4ACoy9Njbnt4-37">
          <mxGeometry relative="1" as="geometry" />
        </mxCell>
        <mxCell id="KllGeDsj4ACoy9Njbnt4-33" value="开始" style="strokeWidth=2;html=1;shape=mxgraph.flowchart.start_1;whiteSpace=wrap;" vertex="1" parent="1">
          <mxGeometry x="1228" y="51" width="100" height="60" as="geometry" />
        </mxCell>
        <mxCell id="KllGeDsj4ACoy9Njbnt4-36" style="edgeStyle=orthogonalEdgeStyle;rounded=0;orthogonalLoop=1;jettySize=auto;html=1;exitX=0;exitY=0.5;exitDx=0;exitDy=0;exitPerimeter=0;" edge="1" parent="1" source="KllGeDsj4ACoy9Njbnt4-35" target="KllGeDsj4ACoy9Njbnt4-33">
          <mxGeometry relative="1" as="geometry" />
        </mxCell>
        <mxCell id="KllGeDsj4ACoy9Njbnt4-35" value="商户入网进度查询" style="strokeWidth=2;html=1;shape=mxgraph.flowchart.annotation_2;align=left;labelPosition=right;pointerEvents=1;" vertex="1" parent="1">
          <mxGeometry x="1373" y="52.5" width="83" height="57" as="geometry" />
        </mxCell>
        <mxCell id="KllGeDsj4ACoy9Njbnt4-40" value="" style="edgeStyle=orthogonalEdgeStyle;rounded=0;orthogonalLoop=1;jettySize=auto;html=1;" edge="1" parent="1" source="KllGeDsj4ACoy9Njbnt4-37" target="KllGeDsj4ACoy9Njbnt4-39">
          <mxGeometry relative="1" as="geometry" />
        </mxCell>
        <mxCell id="KllGeDsj4ACoy9Njbnt4-41" value="requestNo=入参&lt;br&gt;applicationType=CONTRIBUT_MERCHANT" style="edgeLabel;html=1;align=center;verticalAlign=middle;resizable=0;points=[];" vertex="1" connectable="0" parent="KllGeDsj4ACoy9Njbnt4-40">
          <mxGeometry x="-0.0364" y="2" relative="1" as="geometry">
            <mxPoint x="3" y="-15" as="offset" />
          </mxGeometry>
        </mxCell>
        <mxCell id="KllGeDsj4ACoy9Njbnt4-43" value="" style="edgeStyle=orthogonalEdgeStyle;rounded=0;orthogonalLoop=1;jettySize=auto;html=1;" edge="1" parent="1" source="KllGeDsj4ACoy9Njbnt4-37" target="KllGeDsj4ACoy9Njbnt4-42">
          <mxGeometry relative="1" as="geometry" />
        </mxCell>
        <mxCell id="KllGeDsj4ACoy9Njbnt4-37" value="查询入网进度" style="whiteSpace=wrap;html=1;strokeWidth=2;" vertex="1" parent="1">
          <mxGeometry x="1218" y="157" width="120" height="60" as="geometry" />
        </mxCell>
        <mxCell id="KllGeDsj4ACoy9Njbnt4-39" value="" style="shape=cylinder;whiteSpace=wrap;html=1;boundedLbl=1;backgroundOutline=1;strokeWidth=2;" vertex="1" parent="1">
          <mxGeometry x="1659" y="147" width="60" height="80" as="geometry" />
        </mxCell>
        <mxCell id="KllGeDsj4ACoy9Njbnt4-45" value="" style="edgeStyle=orthogonalEdgeStyle;rounded=0;orthogonalLoop=1;jettySize=auto;html=1;" edge="1" parent="1" source="KllGeDsj4ACoy9Njbnt4-42" target="KllGeDsj4ACoy9Njbnt4-44">
          <mxGeometry relative="1" as="geometry" />
        </mxCell>
        <mxCell id="KllGeDsj4ACoy9Njbnt4-46" value="不等于1" style="edgeLabel;html=1;align=center;verticalAlign=middle;resizable=0;points=[];" vertex="1" connectable="0" parent="KllGeDsj4ACoy9Njbnt4-45">
          <mxGeometry x="-0.1956" relative="1" as="geometry">
            <mxPoint y="1" as="offset" />
          </mxGeometry>
        </mxCell>
        <mxCell id="KllGeDsj4ACoy9Njbnt4-48" value="" style="edgeStyle=orthogonalEdgeStyle;rounded=0;orthogonalLoop=1;jettySize=auto;html=1;" edge="1" parent="1" source="KllGeDsj4ACoy9Njbnt4-42" target="KllGeDsj4ACoy9Njbnt4-47">
          <mxGeometry relative="1" as="geometry" />
        </mxCell>
        <mxCell id="KllGeDsj4ACoy9Njbnt4-42" value="记录条数" style="rhombus;whiteSpace=wrap;html=1;strokeWidth=2;" vertex="1" parent="1">
          <mxGeometry x="1224" y="252" width="108" height="59" as="geometry" />
        </mxCell>
        <mxCell id="KllGeDsj4ACoy9Njbnt4-44" value="结束" style="ellipse;whiteSpace=wrap;html=1;strokeWidth=2;" vertex="1" parent="1">
          <mxGeometry x="1404" y="256.25" width="92" height="50.5" as="geometry" />
        </mxCell>
        <mxCell id="KllGeDsj4ACoy9Njbnt4-47" value="结束" style="ellipse;whiteSpace=wrap;html=1;strokeWidth=2;" vertex="1" parent="1">
          <mxGeometry x="1229" y="357" width="98" height="47.5" as="geometry" />
        </mxCell>
        <mxCell id="KllGeDsj4ACoy9Njbnt4-50" value="" style="edgeStyle=orthogonalEdgeStyle;rounded=0;orthogonalLoop=1;jettySize=auto;html=1;" edge="1" parent="1" source="KllGeDsj4ACoy9Njbnt4-21" target="KllGeDsj4ACoy9Njbnt4-13">
          <mxGeometry relative="1" as="geometry">
            <mxPoint x="754" y="176.5" as="sourcePoint" />
            <mxPoint x="845" y="176.5" as="targetPoint" />
          </mxGeometry>
        </mxCell>
        <mxCell id="KllGeDsj4ACoy9Njbnt4-51" value="applicationNo=入参工单号&lt;br&gt;applicationType=CONTRIBUT_MERCHANT" style="edgeLabel;html=1;align=center;verticalAlign=middle;resizable=0;points=[];" vertex="1" connectable="0" parent="KllGeDsj4ACoy9Njbnt4-50">
          <mxGeometry x="-0.2109" y="2" relative="1" as="geometry">
            <mxPoint x="34" y="-21" as="offset" />
          </mxGeometry>
        </mxCell>
      </root>
    </mxGraphModel>
  </diagram>
  <diagram id="xMQZjuHvh5yQaUtxyoXN" name="第 2 页">
    <mxGraphModel dx="807" dy="516" grid="1" gridSize="10" guides="1" tooltips="1" connect="1" arrows="1" fold="1" page="1" pageScale="1" pageWidth="827" pageHeight="1169" math="0" shadow="0">
      <root>
        <mxCell id="6D580EjlVo4oe9tn3Bij-0" />
        <mxCell id="6D580EjlVo4oe9tn3Bij-1" parent="6D580EjlVo4oe9tn3Bij-0" />
        <mxCell id="mIzii8sMmFUAInziXg6Z-2" value="" style="edgeStyle=orthogonalEdgeStyle;rounded=0;orthogonalLoop=1;jettySize=auto;html=1;" edge="1" parent="6D580EjlVo4oe9tn3Bij-1" source="mIzii8sMmFUAInziXg6Z-0" target="mIzii8sMmFUAInziXg6Z-1">
          <mxGeometry relative="1" as="geometry" />
        </mxCell>
        <mxCell id="mIzii8sMmFUAInziXg6Z-0" value="web" style="rounded=0;whiteSpace=wrap;html=1;" vertex="1" parent="6D580EjlVo4oe9tn3Bij-1">
          <mxGeometry x="170" y="70" width="120" height="60" as="geometry" />
        </mxCell>
        <mxCell id="mIzii8sMmFUAInziXg6Z-1" value="web" style="rounded=0;whiteSpace=wrap;html=1;" vertex="1" parent="6D580EjlVo4oe9tn3Bij-1">
          <mxGeometry x="170" y="390" width="120" height="60" as="geometry" />
        </mxCell>
        <mxCell id="mIzii8sMmFUAInziXg6Z-5" value="" style="edgeStyle=orthogonalEdgeStyle;rounded=0;orthogonalLoop=1;jettySize=auto;html=1;" edge="1" parent="6D580EjlVo4oe9tn3Bij-1" source="mIzii8sMmFUAInziXg6Z-3" target="mIzii8sMmFUAInziXg6Z-4">
          <mxGeometry relative="1" as="geometry" />
        </mxCell>
        <mxCell id="mIzii8sMmFUAInziXg6Z-3" value="redis" style="rounded=0;whiteSpace=wrap;html=1;" vertex="1" parent="6D580EjlVo4oe9tn3Bij-1">
          <mxGeometry x="400" y="70" width="120" height="60" as="geometry" />
        </mxCell>
        <mxCell id="mIzii8sMmFUAInziXg6Z-4" value="redis" style="rounded=0;whiteSpace=wrap;html=1;" vertex="1" parent="6D580EjlVo4oe9tn3Bij-1">
          <mxGeometry x="400" y="390" width="120" height="60" as="geometry" />
        </mxCell>
        <mxCell id="mIzii8sMmFUAInziXg6Z-6" value="Actor" style="shape=umlActor;verticalLabelPosition=bottom;verticalAlign=top;html=1;outlineConnect=0;" vertex="1" parent="6D580EjlVo4oe9tn3Bij-1">
          <mxGeometry x="50" y="130" width="30" height="60" as="geometry" />
        </mxCell>
        <mxCell id="mIzii8sMmFUAInziXg6Z-7" value="" style="endArrow=classic;html=1;" edge="1" parent="6D580EjlVo4oe9tn3Bij-1">
          <mxGeometry width="50" height="50" relative="1" as="geometry">
            <mxPoint x="120" y="170" as="sourcePoint" />
            <mxPoint x="230" y="170" as="targetPoint" />
          </mxGeometry>
        </mxCell>
        <mxCell id="mIzii8sMmFUAInziXg6Z-8" value="一号登录" style="edgeLabel;html=1;align=center;verticalAlign=middle;resizable=0;points=[];" vertex="1" connectable="0" parent="mIzii8sMmFUAInziXg6Z-7">
          <mxGeometry x="-0.1455" y="-1" relative="1" as="geometry">
            <mxPoint as="offset" />
          </mxGeometry>
        </mxCell>
        <mxCell id="mIzii8sMmFUAInziXg6Z-9" value="" style="endArrow=classic;html=1;" edge="1" parent="6D580EjlVo4oe9tn3Bij-1">
          <mxGeometry width="50" height="50" relative="1" as="geometry">
            <mxPoint x="230" y="190" as="sourcePoint" />
            <mxPoint x="460" y="190" as="targetPoint" />
          </mxGeometry>
        </mxCell>
        <mxCell id="mIzii8sMmFUAInziXg6Z-10" value="首次进入时" style="edgeLabel;html=1;align=center;verticalAlign=middle;resizable=0;points=[];" vertex="1" connectable="0" parent="mIzii8sMmFUAInziXg6Z-9">
          <mxGeometry x="0.087" y="2" relative="1" as="geometry">
            <mxPoint as="offset" />
          </mxGeometry>
        </mxCell>
        <mxCell id="mIzii8sMmFUAInziXg6Z-13" value="" style="curved=1;endArrow=classic;html=1;" edge="1" parent="6D580EjlVo4oe9tn3Bij-1">
          <mxGeometry width="50" height="50" relative="1" as="geometry">
            <mxPoint x="460" y="250" as="sourcePoint" />
            <mxPoint x="460" y="270" as="targetPoint" />
            <Array as="points">
              <mxPoint x="500" y="250" />
              <mxPoint x="520" y="270" />
            </Array>
          </mxGeometry>
        </mxCell>
        <mxCell id="mIzii8sMmFUAInziXg6Z-15" value="&lt;span style=&quot;font-size: 11px ; text-align: center ; background-color: rgb(255 , 255 , 255)&quot;&gt;将2号元集合信息全部挪到待删除集合中，&lt;br&gt;并返回2号待删除集合信息&lt;/span&gt;" style="strokeWidth=2;html=1;shape=mxgraph.flowchart.annotation_2;align=left;labelPosition=right;pointerEvents=1;" vertex="1" parent="6D580EjlVo4oe9tn3Bij-1">
          <mxGeometry x="510" y="180" width="50" height="50" as="geometry" />
        </mxCell>
        <mxCell id="mIzii8sMmFUAInziXg6Z-16" value="" style="endArrow=classic;html=1;" edge="1" parent="6D580EjlVo4oe9tn3Bij-1">
          <mxGeometry width="50" height="50" relative="1" as="geometry">
            <mxPoint x="230" y="250" as="sourcePoint" />
            <mxPoint x="460" y="250" as="targetPoint" />
          </mxGeometry>
        </mxCell>
        <mxCell id="mIzii8sMmFUAInziXg6Z-17" value="循环每秒请求" style="edgeLabel;html=1;align=center;verticalAlign=middle;resizable=0;points=[];" vertex="1" connectable="0" parent="mIzii8sMmFUAInziXg6Z-16">
          <mxGeometry x="-0.0435" y="-1" relative="1" as="geometry">
            <mxPoint as="offset" />
          </mxGeometry>
        </mxCell>
        <mxCell id="mIzii8sMmFUAInziXg6Z-18" value="" style="curved=1;endArrow=classic;html=1;" edge="1" parent="6D580EjlVo4oe9tn3Bij-1">
          <mxGeometry width="50" height="50" relative="1" as="geometry">
            <mxPoint x="460" y="190" as="sourcePoint" />
            <mxPoint x="460" y="210" as="targetPoint" />
            <Array as="points">
              <mxPoint x="480" y="190" />
              <mxPoint x="500" y="190" />
              <mxPoint x="520" y="210" />
            </Array>
          </mxGeometry>
        </mxCell>
        <mxCell id="mIzii8sMmFUAInziXg6Z-19" value="remove2号元集合信息一条数据放入2号待删除集合&lt;br&gt;并返回这条信息（如果没有，则返回空）" style="strokeWidth=2;html=1;shape=mxgraph.flowchart.annotation_2;align=left;labelPosition=right;pointerEvents=1;" vertex="1" parent="6D580EjlVo4oe9tn3Bij-1">
          <mxGeometry x="510" y="250" width="50" height="30" as="geometry" />
        </mxCell>
        <mxCell id="mIzii8sMmFUAInziXg6Z-20" value="" style="endArrow=classic;html=1;" edge="1" parent="6D580EjlVo4oe9tn3Bij-1">
          <mxGeometry width="50" height="50" relative="1" as="geometry">
            <mxPoint x="460" y="210" as="sourcePoint" />
            <mxPoint x="230" y="210" as="targetPoint" />
          </mxGeometry>
        </mxCell>
        <mxCell id="mIzii8sMmFUAInziXg6Z-21" value="返回之前所有信息" style="edgeLabel;html=1;align=center;verticalAlign=middle;resizable=0;points=[];" vertex="1" connectable="0" parent="mIzii8sMmFUAInziXg6Z-20">
          <mxGeometry x="-0.1217" relative="1" as="geometry">
            <mxPoint as="offset" />
          </mxGeometry>
        </mxCell>
        <mxCell id="mIzii8sMmFUAInziXg6Z-22" value="" style="endArrow=classic;html=1;" edge="1" parent="6D580EjlVo4oe9tn3Bij-1">
          <mxGeometry width="50" height="50" relative="1" as="geometry">
            <mxPoint x="460" y="270" as="sourcePoint" />
            <mxPoint x="230" y="270" as="targetPoint" />
          </mxGeometry>
        </mxCell>
        <mxCell id="mIzii8sMmFUAInziXg6Z-23" value="返回单条信息" style="edgeLabel;html=1;align=center;verticalAlign=middle;resizable=0;points=[];" vertex="1" connectable="0" parent="mIzii8sMmFUAInziXg6Z-22">
          <mxGeometry x="-0.1217" relative="1" as="geometry">
            <mxPoint as="offset" />
          </mxGeometry>
        </mxCell>
        <mxCell id="mIzii8sMmFUAInziXg6Z-33" value="" style="endArrow=classic;html=1;" edge="1" parent="6D580EjlVo4oe9tn3Bij-1">
          <mxGeometry width="50" height="50" relative="1" as="geometry">
            <mxPoint x="230" y="340" as="sourcePoint" />
            <mxPoint x="460" y="340" as="targetPoint" />
          </mxGeometry>
        </mxCell>
        <mxCell id="mIzii8sMmFUAInziXg6Z-34" value="发送信息" style="edgeLabel;html=1;align=center;verticalAlign=middle;resizable=0;points=[];" vertex="1" connectable="0" parent="mIzii8sMmFUAInziXg6Z-33">
          <mxGeometry x="-0.0174" y="-3" relative="1" as="geometry">
            <mxPoint as="offset" />
          </mxGeometry>
        </mxCell>
        <mxCell id="mIzii8sMmFUAInziXg6Z-35" value="" style="curved=1;endArrow=classic;html=1;" edge="1" parent="6D580EjlVo4oe9tn3Bij-1">
          <mxGeometry width="50" height="50" relative="1" as="geometry">
            <mxPoint x="460" y="340" as="sourcePoint" />
            <mxPoint x="460" y="360" as="targetPoint" />
            <Array as="points">
              <mxPoint x="480" y="340" />
              <mxPoint x="500" y="340" />
              <mxPoint x="520" y="360" />
            </Array>
          </mxGeometry>
        </mxCell>
        <mxCell id="mIzii8sMmFUAInziXg6Z-36" value="新增一条信息到1号原集合里" style="strokeWidth=2;html=1;shape=mxgraph.flowchart.annotation_2;align=left;labelPosition=right;pointerEvents=1;" vertex="1" parent="6D580EjlVo4oe9tn3Bij-1">
          <mxGeometry x="510" y="340" width="50" height="30" as="geometry" />
        </mxCell>
      </root>
    </mxGraphModel>
  </diagram>
</mxfile>
